<svg width="48" height="28" viewBox="0 0 48 28" fill="none" xmlns="http://www.w3.org/2000/svg">
<path d="M0 8C0 3.58172 3.58172 0 8 0H40C44.4183 0 48 3.58172 48 8V20C48 24.4183 44.4183 28 40 28H8C3.58172 28 0 24.4183 0 20V8Z" fill="#DDDBFF"/>
<path d="M13.061 19.21C12.0577 19.21 11.2107 18.9883 10.52 18.545C9.82933 18.097 9.30667 17.4787 8.952 16.69C8.59733 15.9013 8.42 14.9913 8.42 13.96C8.42 12.9287 8.59733 12.0187 8.952 11.23C9.30667 10.4413 9.82933 9.82533 10.52 9.382C11.2107 8.934 12.0577 8.71 13.061 8.71C14.2323 8.71 15.189 9.011 15.931 9.613C16.673 10.2103 17.1817 11.013 17.457 12.021L16.407 12.294C16.1923 11.496 15.8073 10.8637 15.252 10.397C14.6967 9.93033 13.9663 9.697 13.061 9.697C12.2723 9.697 11.6167 9.87667 11.094 10.236C10.5713 10.5953 10.177 11.097 9.911 11.741C9.64967 12.3803 9.51433 13.12 9.505 13.96C9.50033 14.8 9.62867 15.5397 9.89 16.179C10.156 16.8183 10.5527 17.32 11.08 17.684C11.612 18.0433 12.2723 18.223 13.061 18.223C13.9663 18.223 14.6967 17.9897 15.252 17.523C15.8073 17.0517 16.1923 16.4193 16.407 15.626L17.457 15.899C17.1817 16.907 16.673 17.712 15.931 18.314C15.189 18.9113 14.2323 19.21 13.061 19.21ZM24.4615 19V15.143C24.4615 14.723 24.4218 14.338 24.3425 13.988C24.2632 13.6333 24.1348 13.3253 23.9575 13.064C23.7848 12.798 23.5585 12.5927 23.2785 12.448C23.0032 12.3033 22.6672 12.231 22.2705 12.231C21.9065 12.231 21.5845 12.294 21.3045 12.42C21.0292 12.546 20.7958 12.728 20.6045 12.966C20.4178 13.1993 20.2755 13.484 20.1775 13.82C20.0795 14.156 20.0305 14.5387 20.0305 14.968L19.3025 14.807C19.3025 14.0323 19.4378 13.3813 19.7085 12.854C19.9792 12.3267 20.3525 11.9277 20.8285 11.657C21.3045 11.3863 21.8505 11.251 22.4665 11.251C22.9192 11.251 23.3135 11.321 23.6495 11.461C23.9902 11.601 24.2772 11.79 24.5105 12.028C24.7485 12.266 24.9398 12.539 25.0845 12.847C25.2292 13.1503 25.3342 13.4747 25.3995 13.82C25.4648 14.1607 25.4975 14.5013 25.4975 14.842V19H24.4615ZM18.9945 19V8.92H19.9255V14.611H20.0305V19H18.9945ZM29.477 19.21C28.9077 19.21 28.4293 19.1073 28.042 18.902C27.6593 18.6967 27.3723 18.4237 27.181 18.083C26.9897 17.7423 26.894 17.3713 26.894 16.97C26.894 16.5593 26.9757 16.2093 27.139 15.92C27.307 15.626 27.5333 15.3857 27.818 15.199C28.1073 15.0123 28.441 14.87 28.819 14.772C29.2017 14.6787 29.624 14.597 30.086 14.527C30.5527 14.4523 31.0077 14.3893 31.451 14.338C31.899 14.282 32.291 14.2283 32.627 14.177L32.263 14.401C32.277 13.6543 32.1323 13.1013 31.829 12.742C31.5257 12.3827 30.9983 12.203 30.247 12.203C29.729 12.203 29.2903 12.3197 28.931 12.553C28.5763 12.7863 28.3267 13.155 28.182 13.659L27.181 13.365C27.3537 12.6883 27.7013 12.1633 28.224 11.79C28.7467 11.4167 29.4257 11.23 30.261 11.23C30.9517 11.23 31.5373 11.3607 32.018 11.622C32.5033 11.8787 32.8463 12.252 33.047 12.742C33.1403 12.9613 33.201 13.2063 33.229 13.477C33.257 13.7477 33.271 14.023 33.271 14.303V19H32.354V17.103L32.62 17.215C32.3633 17.8637 31.9643 18.3583 31.423 18.699C30.8817 19.0397 30.233 19.21 29.477 19.21ZM29.596 18.321C30.0767 18.321 30.4967 18.2347 30.856 18.062C31.2153 17.8893 31.5047 17.6537 31.724 17.355C31.9433 17.0517 32.0857 16.711 32.151 16.333C32.207 16.0903 32.2373 15.8243 32.242 15.535C32.2467 15.241 32.249 15.0217 32.249 14.877L32.641 15.08C32.291 15.1267 31.9107 15.1733 31.5 15.22C31.094 15.2667 30.6927 15.3203 30.296 15.381C29.904 15.4417 29.5493 15.514 29.232 15.598C29.0173 15.6587 28.8097 15.745 28.609 15.857C28.4083 15.9643 28.2427 16.109 28.112 16.291C27.986 16.473 27.923 16.6993 27.923 16.97C27.923 17.1893 27.9767 17.4017 28.084 17.607C28.196 17.8123 28.3733 17.9827 28.616 18.118C28.8633 18.2533 29.19 18.321 29.596 18.321ZM39.2093 19C38.7846 19.0887 38.3646 19.1237 37.9493 19.105C37.5386 19.0863 37.1699 18.9977 36.8433 18.839C36.5213 18.6803 36.2763 18.433 36.1083 18.097C35.9729 17.817 35.8983 17.5347 35.8843 17.25C35.8749 16.9607 35.8703 16.6317 35.8703 16.263V9.34H36.8923V16.221C36.8923 16.5383 36.8946 16.8043 36.8993 17.019C36.9086 17.229 36.9576 17.4157 37.0463 17.579C37.2143 17.8917 37.4803 18.0783 37.8443 18.139C38.2129 18.1997 38.6679 18.1857 39.2093 18.097V19ZM34.2533 12.322V11.44H39.2093V12.322H34.2533Z" fill="#635BFF"/>
</svg>
