<svg width="37" height="37" viewBox="0 0 37 37" fill="none" xmlns="http://www.w3.org/2000/svg">
<path d="M32.375 9.21908C27.2412 8.71033 22.0767 8.44824 16.9275 8.44824C13.875 8.44824 10.8225 8.60241 7.77 8.91074L4.625 9.21908" stroke="#575CD4" stroke-width="1.5" stroke-linecap="round" stroke-linejoin="round"/>
<path d="M13.1042 7.66225L13.4434 5.64266C13.69 4.17808 13.875 3.0835 16.4804 3.0835H20.5196C23.125 3.0835 23.3254 4.23975 23.5567 5.65808L23.8959 7.66225" stroke="#575CD4" stroke-width="1.5" stroke-linecap="round" stroke-linejoin="round"/>
<path d="M29.0604 14.0908L28.0583 29.6154C27.8887 32.0358 27.75 33.9167 23.4487 33.9167H13.5512C9.24999 33.9167 9.11124 32.0358 8.94166 29.6154L7.93958 14.0908" stroke="#575CD4" stroke-width="1.5" stroke-linecap="round" stroke-linejoin="round"/>
<path d="M15.9254 25.4375H21.0592" stroke="#575CD4" stroke-width="1.5" stroke-linecap="round" stroke-linejoin="round"/>
<path d="M14.6458 19.271H22.3541" stroke="#575CD4" stroke-width="1.5" stroke-linecap="round" stroke-linejoin="round"/>
</svg>
