<svg width="20" height="20" viewBox="0 0 20 20" fill="none" xmlns="http://www.w3.org/2000/svg">
<path d="M17.7083 9.99984C17.7083 12.0442 16.8962 14.0049 15.4506 15.4505C14.005 16.896 12.0444 17.7082 10 17.7082V18.9582C14.9475 18.9582 18.9583 14.9473 18.9583 9.99984H17.7083ZM10 17.7082C7.95563 17.7082 5.99498 16.896 4.54939 15.4505C3.1038 14.0049 2.29167 12.0442 2.29167 9.99984H1.04167C1.04167 14.9473 5.05251 18.9582 10 18.9582V17.7082ZM2.29167 9.99984C2.29167 7.95546 3.1038 5.99482 4.54939 4.54922C5.99498 3.10363 7.95563 2.2915 10 2.2915V1.0415C5.05251 1.0415 1.04167 5.05234 1.04167 9.99984H2.29167ZM12.9167 11.8748C11.6458 11.8748 10.4271 11.37 9.52845 10.4714C8.62984 9.57278 8.125 8.354 8.125 7.08317H6.875C6.875 8.68552 7.51154 10.2222 8.64457 11.3553C9.7776 12.4883 11.3143 13.1248 12.9167 13.1248V11.8748ZM17.0208 9.55734C16.5947 10.2648 15.9928 10.8499 15.2736 11.256C14.5545 11.6621 13.7425 11.8753 12.9167 11.8748V13.1248C13.9579 13.1254 14.9815 12.8567 15.8883 12.345C16.795 11.8332 17.554 11.0957 18.0917 10.204L17.0208 9.55734ZM8.125 7.08317C8.12464 6.25731 8.33785 5.44539 8.74392 4.72626C9.14999 4.00713 9.73513 3.40523 10.4425 2.979L9.79584 1.909C8.90424 2.4465 8.16676 3.20538 7.65498 4.11198C7.1432 5.01858 6.87452 6.04209 6.875 7.08317H8.125ZM10 2.2915C9.91549 2.28951 9.83521 2.25416 9.77667 2.19317C9.74089 2.15837 9.71698 2.11317 9.70834 2.064C9.705 2.03817 9.70667 1.96317 9.79584 1.909L10.4425 2.979C10.8617 2.72567 10.9967 2.2615 10.9475 1.8965C10.8958 1.51734 10.5975 1.0415 10 1.0415V2.2915ZM18.0917 10.204C18.0367 10.2932 17.9617 10.2948 17.9358 10.2915C17.8867 10.2829 17.8415 10.259 17.8067 10.2232C17.7457 10.1646 17.7103 10.0843 17.7083 9.99984H18.9583C18.9583 9.40234 18.4825 9.104 18.1033 9.05234C17.7383 9.00317 17.2742 9.13817 17.0208 9.55734L18.0917 10.204Z" fill="#29343D"/>
</svg>
